<svg width="153" height="94" viewBox="0 0 153 94" fill="none" xmlns="http://www.w3.org/2000/svg">
<path d="M88.8799 44.3806C92.2791 34.1417 92.3971 28.2025 89.9704 17.9894L106.765 43.8353L136.428 0.104492H152.786V94.0003H136.428V26.8228L106.765 70.9898L88.8799 44.3806Z" fill="url(#paint0_linear_504_4)"/>
<path d="M12.5412 15.045L0 0.213652C0 0.213652 50.3831 -0.440661 59.9799 0.540815C69.5767 1.52229 76.9093 4.726 83.3175 11.8824C89.7257 19.0389 90.2556 35.4047 85.7167 43.1811C81.1778 50.9575 77.424 54.4552 66.5231 58.2305L91.7147 93.6732H72.5211L38.2781 46.3436H58.0169C78.911 41.5259 75.7928 15.5903 56.272 15.045H12.5412Z" fill="#FAF8F5"/>
<defs>
<linearGradient id="paint0_linear_504_4" x1="146.024" y1="4.47114" x2="110.145" y2="92.0418" gradientUnits="userSpaceOnUse">
<stop stop-color="#F7931E"/>
<stop offset="1" stop-color="#FCBD38"/>
</linearGradient>
</defs>
</svg>
